<svg xmlns="http://www.w3.org/2000/svg" xmlns:xlink="http://www.w3.org/1999/xlink" width="59.782" height="37.313" viewBox="0 0 59.782 37.313">
  <defs>
    <clipPath id="clip-path">
      <path id="path2606" d="M0-36.942H24.5V-59.279H0Z" transform="translate(0 59.279)"/>
    </clipPath>
  </defs>
  <g id="Group_14" data-name="Group 14" transform="translate(-1.333 -1.333)">
    <path id="XMLID_3_-6-9-6-9" d="M59.055,3.532h.631c.171,0,.342,0,.513.008a6.662,6.662,0,0,1,.974.083,2.631,2.631,0,0,1,.749.245,2.419,2.419,0,0,1,1.058,1.059,2.6,2.6,0,0,1,.243.748,6.626,6.626,0,0,1,.083.973c0,.17.007.339.008.513,0,.21,0,.42,0,.631V36.585c0,.211,0,.42,0,.635,0,.17,0,.339-.008.509a6.616,6.616,0,0,1-.083.977,2.586,2.586,0,0,1-.243.745,2.419,2.419,0,0,1-1.06,1.059,2.609,2.609,0,0,1-.744.243,6.777,6.777,0,0,1-.971.083c-.173,0-.344.006-.52.007-.21,0-.42,0-.63,0H7.784c-.207,0-.415,0-.626,0-.172,0-.344,0-.51-.007a6.788,6.788,0,0,1-.975-.083,2.617,2.617,0,0,1-.749-.245,2.419,2.419,0,0,1-1.057-1.058,2.616,2.616,0,0,1-.244-.749,6.592,6.592,0,0,1-.083-.972c0-.171-.007-.341-.008-.511V7.16c0-.171,0-.341.008-.512a6.6,6.6,0,0,1,.083-.976,2.612,2.612,0,0,1,.244-.748A2.419,2.419,0,0,1,4.926,3.868a2.626,2.626,0,0,1,.747-.244,6.653,6.653,0,0,1,.975-.083c.171,0,.342-.006.511-.008H59.055" transform="translate(-2.199 -2.199)" fill="#f2f2f2"/>
    <g id="g3234" transform="translate(12.809 3.059)">
      <g id="g2600" transform="translate(6.168 0)">
        <g id="g2602">
          <g id="g2604" clip-path="url(#clip-path)">
            <path id="path2610" d="M22.98-51h-.863l1.85-1.85a1.5,1.5,0,0,0,.442-1.067A1.5,1.5,0,0,0,24-54.948a1.5,1.5,0,0,0,.41-1.033,1.5,1.5,0,0,0-.442-1.066l-1.79-1.79a1.5,1.5,0,0,0-1.066-.442,1.5,1.5,0,0,0-1.067.442L12.2-51H1.508A1.51,1.51,0,0,0,0-49.49v11a1.51,1.51,0,0,0,1.508,1.508H22.98a1.51,1.51,0,0,0,1.508-1.508v-11A1.51,1.51,0,0,0,22.98-51Zm.231-2.606L20.605-51h-.554l3.191-3.191A.439.439,0,0,1,23.211-53.6ZM9.959-46.752l1.922,1.922-2.7.773Zm2.923,1.411L10.47-47.752l8.058-8.058L20.939-53.4ZM20.8-58.082a.438.438,0,0,1,.311-.128.437.437,0,0,1,.31.128l1.79,1.79a.437.437,0,0,1,.129.31.437.437,0,0,1-.129.311L21.7-54.155l-2.411-2.411Zm2.62,19.6a.44.44,0,0,1-.439.439H1.508a.44.44,0,0,1-.439-.439v-11a.439.439,0,0,1,.439-.439h9.627L9.3-48.1a.536.536,0,0,0-.136.23L7.892-43.424a.534.534,0,0,0,.136.525.534.534,0,0,0,.378.157.535.535,0,0,0,.147-.021l4.441-1.274a.537.537,0,0,0,.231-.136l5.757-5.757h4a.44.44,0,0,1,.439.439Z" transform="translate(0 59.279)" fill="#ff9200"/>
            <path id="path2612" d="M6.987-27.615H10.2a.534.534,0,0,0,.535-.535.535.535,0,0,0-.535-.535H6.987a.535.535,0,0,0-.534.535A.535.535,0,0,0,6.987-27.615Z" transform="translate(-4.018 40.227)" fill="#ff9200"/>
            <path id="path2614" d="M25.294-11.262H6.987a.535.535,0,0,0-.534.535.535.535,0,0,0,.534.534H25.294a.534.534,0,0,0,.535-.534A.535.535,0,0,0,25.294-11.262Z" transform="translate(-4.018 29.378)" fill="#ff9200"/>
            <path id="path2616" d="M49.323-20.005H45.574a.535.535,0,0,0-.535.534.535.535,0,0,0,.535.535h3.749a.535.535,0,0,0,.535-.535.534.534,0,0,0-.535-.534Z" transform="translate(-28.047 34.823)" fill="#ff9200"/>
          </g>
        </g>
      </g>
      <g id="text3202" transform="translate(0 25.873)">
        <path id="path3318" d="M49.639,88.624H50.68l1.141,3.583,1.141-3.583H54l-1.788,5.37h-.79Z" transform="translate(-49.639 -88.568)" fill="#000c44"/>
        <path id="path3320" d="M64.365,93.958a2.118,2.118,0,0,1-1.03-.244,1.727,1.727,0,0,1-.687-.694,2.155,2.155,0,0,1-.244-1.042V90.457a2.133,2.133,0,0,1,.244-1.038,1.7,1.7,0,0,1,.687-.694,2.092,2.092,0,0,1,1.03-.247,2.071,2.071,0,0,1,1.027.247,1.691,1.691,0,0,1,.691.694,2.133,2.133,0,0,1,.244,1.038v1.522a2.155,2.155,0,0,1-.244,1.042,1.72,1.72,0,0,1-.691.694A2.1,2.1,0,0,1,64.365,93.958Zm0-1.012a.975.975,0,0,0,.48-.114.8.8,0,0,0,.318-.332A1.034,1.034,0,0,0,65.278,92V90.431a1.034,1.034,0,0,0-.115-.495.772.772,0,0,0-.318-.329,1.034,1.034,0,0,0-.96,0,.8.8,0,0,0-.321.329,1.062,1.062,0,0,0-.111.495V92a1.062,1.062,0,0,0,.111.495.819.819,0,0,0,.321.332A.975.975,0,0,0,64.365,92.946Z" transform="translate(-57.588 -88.477)" fill="#000c44"/>
        <path id="path3322" d="M75.866,90.852h1.869a.487.487,0,0,0,.273-.078.492.492,0,0,0,.181-.222.825.825,0,0,0,.07-.332h0a.785.785,0,0,0-.066-.332.475.475,0,0,0-.458-.3H75.866v-.975h1.95a1.5,1.5,0,0,1,.779.2,1.346,1.346,0,0,1,.521.565,1.829,1.829,0,0,1,.185.842h0a1.852,1.852,0,0,1-.185.846,1.344,1.344,0,0,1-.524.561,1.491,1.491,0,0,1-.776.2h-1.95Zm-.4-2.238h1.012v5.374H75.463ZM77,91.661l1.082-.17,1.448,2.5H78.3Z" transform="translate(-65.72 -88.562)" fill="#000c44"/>
        <path id="path3324" d="M89.151,91.9,91.3,88.624h1.274l-3.3,4.587Zm-.609-3.272h1.012v5.37H88.542Zm1.5,2.652.872-.55L92.8,93.994H91.6Z" transform="translate(-73.865 -88.568)" fill="#000c44"/>
        <path id="path3326" d="M102.108,88.624h.643l2.053,5.37h-1.09l-1.285-3.667-1.285,3.667h-1.089Zm-1.067,3.534h2.825v.975H101.04Z" transform="translate(-81.034 -88.568)" fill="#000c44"/>
        <path id="path3328" d="M114.781,93.958a3.656,3.656,0,0,1-.753-.078,3.336,3.336,0,0,1-.691-.225,2.72,2.72,0,0,1-.576-.362h0l.469-.835h0a2.3,2.3,0,0,0,.716.4,2.6,2.6,0,0,0,.835.137,1.483,1.483,0,0,0,.768-.166.532.532,0,0,0,.273-.476v0A.467.467,0,0,0,115.7,92a.724.724,0,0,0-.318-.185,3.851,3.851,0,0,0-.5-.107.07.07,0,0,0-.022,0l-.018,0-.081-.011a5.115,5.115,0,0,1-.894-.211,1.333,1.333,0,0,1-.6-.447,1.461,1.461,0,0,1-.247-.909v0a1.636,1.636,0,0,1,.233-.89,1.458,1.458,0,0,1,.676-.561,2.642,2.642,0,0,1,1.071-.2,2.7,2.7,0,0,1,.587.066,3.184,3.184,0,0,1,.591.192,3.285,3.285,0,0,1,.547.3h0l-.428.857h0a2.706,2.706,0,0,0-.65-.332,1.945,1.945,0,0,0-.646-.118,1.391,1.391,0,0,0-.72.155.474.474,0,0,0-.255.428v0a.507.507,0,0,0,.133.369.8.8,0,0,0,.329.2,5.225,5.225,0,0,0,.55.133l.03.007a.121.121,0,0,1,.03,0,.194.194,0,0,1,.041.011l.044.007a4.343,4.343,0,0,1,.849.244,1.306,1.306,0,0,1,.572.458,1.434,1.434,0,0,1,.229.861v.007a1.566,1.566,0,0,1-.24.879,1.5,1.5,0,0,1-.7.558,2.851,2.851,0,0,1-1.1.192Z" transform="translate(-88.946 -88.477)" fill="#000c44"/>
        <path id="path3330" d="M126.724,93.958a3.656,3.656,0,0,1-.753-.078,3.337,3.337,0,0,1-.691-.225,2.72,2.72,0,0,1-.576-.362h0l.469-.835h0a2.3,2.3,0,0,0,.717.4,2.6,2.6,0,0,0,.835.137,1.483,1.483,0,0,0,.768-.166.532.532,0,0,0,.273-.476v0a.467.467,0,0,0-.122-.34.724.724,0,0,0-.318-.185,3.851,3.851,0,0,0-.5-.107.07.07,0,0,0-.022,0l-.018,0-.081-.011a5.115,5.115,0,0,1-.894-.211,1.333,1.333,0,0,1-.6-.447,1.461,1.461,0,0,1-.247-.909v0a1.636,1.636,0,0,1,.233-.89,1.458,1.458,0,0,1,.676-.561,2.642,2.642,0,0,1,1.071-.2,2.7,2.7,0,0,1,.587.066,3.184,3.184,0,0,1,.591.192,3.286,3.286,0,0,1,.547.3h0l-.428.857h0a2.706,2.706,0,0,0-.65-.332,1.946,1.946,0,0,0-.646-.118,1.391,1.391,0,0,0-.72.155.474.474,0,0,0-.255.428v0a.507.507,0,0,0,.133.369.8.8,0,0,0,.329.2,5.224,5.224,0,0,0,.55.133l.03.007a.121.121,0,0,1,.03,0,.194.194,0,0,1,.041.011l.044.007a4.343,4.343,0,0,1,.849.244,1.306,1.306,0,0,1,.572.458,1.434,1.434,0,0,1,.229.861v.007a1.566,1.566,0,0,1-.24.879,1.5,1.5,0,0,1-.7.558,2.851,2.851,0,0,1-1.1.192Z" transform="translate(-96.383 -88.477)" fill="#000c44"/>
        <path id="path3332" d="M137.724,88.624h1.012v5.37h-1.012Zm.366,4.4h3.232v.975h-3.232Zm0-2.179h2.825v.975h-2.825Zm0-2.216h3.232V89.6h-3.232Z" transform="translate(-104.491 -88.568)" fill="#000c44"/>
      </g>
    </g>
  </g>
</svg>
