<svg xmlns="http://www.w3.org/2000/svg" width="64.823" height="41.499" viewBox="0 0 64.823 41.499">
  <g id="Group_9" data-name="Group 9" transform="translate(-0.001 -0.001)">
    <path id="XMLID_4_-3-0-9" d="M59.018,0H5.141c-.187,0-.374,0-.56.008A8.139,8.139,0,0,0,3.362.117,4.116,4.116,0,0,0,2.2.5,3.894,3.894,0,0,0,.5,2.2,4.1,4.1,0,0,0,.118,3.362,8.085,8.085,0,0,0,.01,4.581C0,4.768,0,4.954,0,5.141c0,.222,0,.443,0,.665V35.694c0,.222,0,.443,0,.665,0,.187,0,.373.008.56a8.081,8.081,0,0,0,.108,1.218A4.1,4.1,0,0,0,.5,39.3,3.894,3.894,0,0,0,2.2,41a4.1,4.1,0,0,0,1.159.383,8.2,8.2,0,0,0,1.219.107q.28.006.56.008c.221,0,.443,0,.665,0H59.018c.221,0,.443,0,.664,0q.28,0,.561-.008a8.224,8.224,0,0,0,1.219-.107A4.1,4.1,0,0,0,62.621,41a3.894,3.894,0,0,0,1.7-1.7,4.072,4.072,0,0,0,.382-1.159,8.081,8.081,0,0,0,.107-1.218c.005-.187.008-.373.008-.56,0-.222,0-.443,0-.665V5.806c0-.222,0-.444,0-.665q0-.28-.008-.56a8.085,8.085,0,0,0-.107-1.219A4.073,4.073,0,0,0,64.324,2.2a3.894,3.894,0,0,0-1.7-1.7A4.12,4.12,0,0,0,61.462.117,8.161,8.161,0,0,0,60.243.01C60.056.005,59.869,0,59.683,0Z"/>
    <g id="g4862" transform="translate(12.271 5.084)">
      <path id="path3552" d="M36.888,89.17V87.1a1.231,1.231,0,0,0-1.3-1.314,1.279,1.279,0,0,0-1.162.588,1.214,1.214,0,0,0-1.093-.588,1.093,1.093,0,0,0-.968.491v-.408h-.719V89.17h.726V87.351a.775.775,0,0,1,.809-.878c.477,0,.719.311.719.871v1.84h.726V87.351a.778.778,0,0,1,.809-.878c.491,0,.726.311.726.871v1.84Zm10.744-3.306H46.449v-1h-.726v1h-.657v.657h.671v1.521c0,.768.3,1.224,1.148,1.224a1.687,1.687,0,0,0,.9-.256l-.207-.616a1.328,1.328,0,0,1-.636.187c-.346,0-.477-.221-.477-.553V86.521h1.176Zm6.134-.083a.975.975,0,0,0-.871.484v-.4h-.712V89.17H52.9V87.317c0-.546.235-.851.692-.851a1.172,1.172,0,0,1,.45.083l.221-.692a1.539,1.539,0,0,0-.512-.09Zm-9.274.346a2.472,2.472,0,0,0-1.349-.346c-.837,0-1.383.4-1.383,1.058,0,.539.4.871,1.141.975l.346.048c.394.055.581.159.581.346,0,.256-.263.4-.754.4a1.76,1.76,0,0,1-1.1-.346l-.346.56a2.386,2.386,0,0,0,1.432.429c.954,0,1.508-.45,1.508-1.079s-.436-.885-1.155-.989l-.346-.048c-.311-.041-.56-.1-.56-.325s.235-.387.629-.387a2.13,2.13,0,0,1,1.037.284Zm19.264-.346a.975.975,0,0,0-.871.484v-.4h-.712V89.17h.719V87.317c0-.546.235-.851.692-.851a1.172,1.172,0,0,1,.45.083l.221-.692a1.539,1.539,0,0,0-.512-.09ZM54.489,87.51a1.67,1.67,0,0,0,1.764,1.729,1.729,1.729,0,0,0,1.19-.394l-.346-.581a1.452,1.452,0,0,1-.864.3,1.062,1.062,0,0,1,0-2.116,1.452,1.452,0,0,1,.864.3l.346-.581a1.729,1.729,0,0,0-1.19-.394A1.67,1.67,0,0,0,54.489,87.5Zm6.736,0V85.864h-.719v.4a1.255,1.255,0,0,0-1.037-.484,1.729,1.729,0,1,0,0,3.458,1.255,1.255,0,0,0,1.037-.484v.4h.719Zm-2.676,0a.992.992,0,1,1,.27.748,1,1,0,0,1-.27-.748Zm-8.679-1.729a1.729,1.729,0,1,0,.048,3.458,2.009,2.009,0,0,0,1.373-.45l-.346-.533a1.573,1.573,0,0,1-.961.346.916.916,0,0,1-.989-.809H51.45v-.277a1.572,1.572,0,0,0-1.57-1.729Zm0,.643a.82.82,0,0,1,.837.8H48.977a.851.851,0,0,1,.878-.8Zm18.019,1.093V84.536H67.2v1.729a1.255,1.255,0,0,0-1.037-.484,1.729,1.729,0,0,0,0,3.458,1.255,1.255,0,0,0,1.037-.484v.4h.692Zm1.2,1.172a.333.333,0,0,1,.311.2.322.322,0,0,1,0,.256.33.33,0,0,1-.18.173.325.325,0,0,1-.131.028.346.346,0,0,1-.311-.2.325.325,0,0,1,0-.256.336.336,0,0,1,.322-.2Zm0,.584a.246.246,0,0,0,.1-.021.259.259,0,0,0,.08-.055.249.249,0,0,0-.08-.4.249.249,0,0,0-.1-.021.259.259,0,0,0-.1.021.252.252,0,0,0-.083.055.251.251,0,0,0,.194.422Zm.021-.411a.138.138,0,0,1,.09.028.086.086,0,0,1,.031.073.083.083,0,0,1-.024.062.121.121,0,0,1-.073.031l.1.114h-.08l-.093-.114h-.031v.114h-.066v-.3Zm-.076.059V89h.076a.072.072,0,0,0,.041,0,126.893,126.893,0,0,1,0-.062.073.073,0,0,0-.041,0Zm-3.8-1.4a.992.992,0,1,1,.27.748A1,1,0,0,1,65.229,87.517Zm-24.285,0V85.864h-.719v.4a1.255,1.255,0,0,0-1.037-.484,1.729,1.729,0,1,0,0,3.458,1.255,1.255,0,0,0,1.037-.484v.4h.719Zm-2.676,0a.424.424,0,1,1-.007,0Z" transform="translate(-29.56 -58.011)" fill="#fff"/>
      <rect id="rect3554" width="10.892" height="19.575" transform="translate(14.694 2.662)" fill="#ff5f00"/>
      <path id="_Path_" data-name="&lt;Path&gt;" d="M41.7,29.26a12.428,12.428,0,0,1,4.755-9.789,12.448,12.448,0,1,0,0,19.575A12.428,12.428,0,0,1,41.7,29.26Z" transform="translate(-26.318 -16.809)" fill="#eb001b"/>
      <path id="path3557" d="M97.887,29.258a12.448,12.448,0,0,1-20.142,9.786,12.448,12.448,0,0,0,0-19.575,12.448,12.448,0,0,1,20.142,9.786Z" transform="translate(-57.604 -16.806)" fill="#f79e1b"/>
      <path id="path3559" d="M125.752,67.538v-.4h.163v-.083H125.5v.083h.176v.4Zm.8,0v-.484h-.124l-.145.346-.145-.346h-.111v.484h.09v-.363l.135.315h.093l.135-.315v.367Z" transform="translate(-86.659 -47.376)" fill="#f79e1b"/>
    </g>
  </g>
</svg>
