<svg xmlns="http://www.w3.org/2000/svg" width="62.056" height="38.732" viewBox="0 0 62.056 38.732">
  <g id="Group_13" data-name="Group 13" transform="translate(-1.384 -1.384)">
    <path id="XMLID_3_-6-9-6-9" d="M61.167,3.532h.655c.177,0,.355,0,.533.008a6.915,6.915,0,0,1,1.011.086,2.731,2.731,0,0,1,.777.254,2.511,2.511,0,0,1,1.1,1.1,2.694,2.694,0,0,1,.252.776,6.878,6.878,0,0,1,.086,1.01c0,.176.007.352.008.533,0,.218,0,.436,0,.655V37.843c0,.219,0,.436,0,.659,0,.176,0,.352-.008.529a6.868,6.868,0,0,1-.086,1.014,2.685,2.685,0,0,1-.252.773,2.511,2.511,0,0,1-1.1,1.1,2.708,2.708,0,0,1-.772.253,7.033,7.033,0,0,1-1.008.086c-.179,0-.357.006-.54.007-.218,0-.436,0-.654,0H7.946c-.215,0-.431,0-.65,0-.179,0-.357,0-.529-.007a7.046,7.046,0,0,1-1.012-.086,2.717,2.717,0,0,1-.778-.255,2.511,2.511,0,0,1-1.1-1.1,2.716,2.716,0,0,1-.253-.777,6.843,6.843,0,0,1-.086-1.01c0-.177-.007-.354-.008-.531V7.3c0-.177,0-.354.008-.531a6.85,6.85,0,0,1,.087-1.013,2.711,2.711,0,0,1,.253-.776,2.512,2.512,0,0,1,1.1-1.1,2.725,2.725,0,0,1,.776-.253,6.906,6.906,0,0,1,1.012-.086c.177,0,.355-.007.53-.008H61.167" transform="translate(-2.149 -2.149)" fill="#f2f2f2"/>
    <g id="g1035" transform="translate(8.914 13.604)">
      <path id="path5689" d="M10.441,4.2H7.226A2.067,2.067,0,0,0,7.04,3.14q-.287-.4-1.584-.4a3.914,3.914,0,0,0-1.668.231q-.407.232-.408,1.006a1,1,0,0,0,.362.923,1.5,1.5,0,0,0,.685.185l.648.046q2.085.138,2.6.194a3.975,3.975,0,0,1,2.39.877,2.323,2.323,0,0,1,.695,1.449,10.106,10.106,0,0,1,.065,1.209,6.4,6.4,0,0,1-.3,2.271A2.935,2.935,0,0,1,8.121,12.8a14.2,14.2,0,0,1-2.405.148,14.815,14.815,0,0,1-3.764-.323,2.455,2.455,0,0,1-1.72-1.6A7.608,7.608,0,0,1,0,8.782H3.216c0,.116,0,.206,0,.267q0,.837.48,1.076a1.888,1.888,0,0,0,.8.175H5.682a4.272,4.272,0,0,0,1.154-.093.941.941,0,0,0,.582-.562,2.146,2.146,0,0,0,.074-.618q0-.848-.619-1.033a19.274,19.274,0,0,0-2.151-.2q-1.542-.11-2.141-.212a2.857,2.857,0,0,1-2.1-1.217,4.782,4.782,0,0,1-.462-2.37A6.134,6.134,0,0,1,.265,2.055,2.12,2.12,0,0,1,1.07.948,4.075,4.075,0,0,1,3.15.266Q4.2.174,5.489.173A12.5,12.5,0,0,1,8.373.4q2.1.564,2.1,3.16c0,.142-.01.354-.031.638" transform="translate(0 0.619)" fill="#10298e"/>
      <path id="path5693" d="M62.767,12.843V0h6.44a7.189,7.189,0,0,1,2.02.216,3.138,3.138,0,0,1,2.134,2.038,7.88,7.88,0,0,1,.282,2.434A9.05,9.05,0,0,1,73.332,7.5a2.893,2.893,0,0,1-2.547,1.945q-.227.038-1.927.066l-.574.019H66.224v3.316Zm3.457-6.295h2.155a3.846,3.846,0,0,0,1.248-.159.923.923,0,0,0,.41-.674,5.661,5.661,0,0,0,.065-1A4.129,4.129,0,0,0,69.971,3.5a1.031,1.031,0,0,0-.893-.674c-.094-.012-.317-.019-.671-.019H66.224Z" transform="translate(-38.186 0.724)" fill="#10298e"/>
      <path id="path5697" d="M95.678,10.623H91.057l-.621,2.219H86.86L90.719,0h5.214l3.906,12.843h-3.5Zm-.686-2.5-1.62-5.567L91.8,8.121Z" transform="translate(-52.843 0.724)" fill="#10298e"/>
      <path id="path5705" d="M35.745-1.849A7.383,7.383,0,0,0,31.609-.592,7.2,7.2,0,0,0,29.22,2.124h-.973a.783.783,0,0,0-.711.455l-.014.03-.857,1.838-.037.078a.783.783,0,0,0,.71,1.115h.241l-.834,1.787v0l-.036.079a.783.783,0,0,0,.711,1.112h1.857a7.315,7.315,0,0,0,6.468,3.863,7.391,7.391,0,0,0,4.108-1.237h0l.024-.016a.783.783,0,0,0,.347-.65V8.147a.783.783,0,0,0-1.373-.516l-.1.109a3.658,3.658,0,0,1-4.409.88h2.605a.783.783,0,0,0,.71-.452l.015-.032L38.536,6.3l.036-.077a.783.783,0,0,0,.019-.62.783.783,0,0,0,.464-.414l.014-.031.857-1.836.036-.077a.783.783,0,0,0,.057-.172.783.783,0,0,0,.2-.264l.037-.08v0l.745-1.6,0-.007.017-.037a.783.783,0,0,0-.169-.886L40.828.166,40.822.16A7.371,7.371,0,0,0,35.745-1.849Zm0,1.677c.067,0,.131.016.2.019a5.41,5.41,0,0,0-4.645,2.7h0l-.048.083A.783.783,0,0,0,31.926,3.8h5.923l-.075.162h-6.4a.783.783,0,0,0-.779.7l-.006.05v.01c-.018.181-.027.364-.027.544a5.533,5.533,0,0,0,.059.8v.007l.007.047a.783.783,0,0,0,.774.663H36.46l-.075.162H32.053A.783.783,0,0,0,31.4,8.159l.054.082a5.312,5.312,0,0,0,7.1,1.75v.071a5.7,5.7,0,0,1-2.8.744,5.627,5.627,0,0,1-5.2-3.358l0-.007-.015-.033a.783.783,0,0,0-.716-.465h-.995l.075-.162h.466a.783.783,0,0,0,.78-.858l-.006-.061v0c-.018-.183-.028-.367-.028-.542,0-.13.006-.276.021-.446h0l0-.06a.783.783,0,0,0-.781-.847h-.613l.075-.162h.956A.783.783,0,0,0,30.5,3.31l.012-.029h0A5.512,5.512,0,0,1,32.546.8a5.694,5.694,0,0,1,3.2-.97Zm.515.048a5.832,5.832,0,0,1,.633.071A5.374,5.374,0,0,0,36.259-.124ZM35.966,1.52a3.666,3.666,0,0,1,1.99.6H33.978a3.691,3.691,0,0,1,1.988-.6Z" transform="translate(-16.155 1.849)" fill="#10298e"/>
      <path id="path5701" d="M37.317,1.984a4.544,4.544,0,0,1,3.534,1.685l.745-1.6a6.549,6.549,0,0,0-10.51,2.193H29.634L28.776,6.1h1.869c-.014.171-.023.341-.023.515a6.215,6.215,0,0,0,.032.625h-.939l-.858,1.84h2.275A6.481,6.481,0,0,0,37.1,12.947a6.549,6.549,0,0,0,3.643-1.1V9.6a4.547,4.547,0,0,1-7.232-.512h4.763l.858-1.84H32.806a4.61,4.61,0,0,1-.027-1.14h6.88l.858-1.839H33.374a4.555,4.555,0,0,1,3.944-2.281" transform="translate(-17.506 0.547)" fill="#ffbe00"/>
    </g>
  </g>
</svg>
