<svg xmlns="http://www.w3.org/2000/svg" xmlns:xlink="http://www.w3.org/1999/xlink" width="59.782" height="37.313" viewBox="0 0 59.782 37.313">
  <defs>
    <linearGradient id="linear-gradient" x1="0.559" y1="0.679" x2="0.559" y2="0.986" gradientUnits="objectBoundingBox">
      <stop offset="0" stop-color="#fff"/>
      <stop offset="1" stop-color="#ccc"/>
    </linearGradient>
  </defs>
  <g id="Group_8" data-name="Group 8" transform="translate(-1.333 -1.333)">
    <path id="XMLID_3_-6-9" d="M59.055,3.533h.631c.171,0,.342,0,.513.008a6.662,6.662,0,0,1,.974.083,2.631,2.631,0,0,1,.749.245,2.419,2.419,0,0,1,1.058,1.059,2.6,2.6,0,0,1,.243.748,6.624,6.624,0,0,1,.083.973c0,.17.007.339.008.513,0,.21,0,.42,0,.631V36.586c0,.211,0,.42,0,.635,0,.17,0,.339-.008.509a6.616,6.616,0,0,1-.083.977,2.586,2.586,0,0,1-.243.745,2.419,2.419,0,0,1-1.06,1.059,2.609,2.609,0,0,1-.744.243,6.776,6.776,0,0,1-.971.083c-.173,0-.344.006-.52.007-.21,0-.42,0-.63,0H7.784c-.207,0-.415,0-.626,0-.172,0-.344,0-.51-.007a6.788,6.788,0,0,1-.975-.083,2.618,2.618,0,0,1-.749-.245,2.419,2.419,0,0,1-1.057-1.057,2.616,2.616,0,0,1-.244-.749,6.592,6.592,0,0,1-.083-.973c0-.171-.007-.341-.008-.511V7.161c0-.171,0-.341.008-.512a6.6,6.6,0,0,1,.083-.976,2.612,2.612,0,0,1,.244-.748A2.419,2.419,0,0,1,4.926,3.868a2.626,2.626,0,0,1,.747-.244,6.653,6.653,0,0,1,.975-.083c.171,0,.342-.006.511-.008H59.055" transform="translate(-2.199 -2.199)" fill="url(#linear-gradient)"/>
    <g id="g4158" transform="translate(8.156 12.524)">
      <path id="polygon9" d="M56.746,27.993H53.009L55.346,13.54h3.737Z" transform="translate(-36.754 -13.278)" fill="#00579f"/>
      <path id="path11" d="M80.32,13.46a9.21,9.21,0,0,0-3.352-.615c-3.691,0-6.29,1.968-6.306,4.782-.031,2.076,1.861,3.229,3.275,3.921,1.446.707,1.937,1.169,1.937,1.8-.015.968-1.168,1.415-2.244,1.415a7.438,7.438,0,0,1-3.507-.769l-.492-.231-.523,3.245a11.374,11.374,0,0,0,4.168.769c3.921,0,6.474-1.938,6.5-4.936.015-1.645-.984-2.906-3.137-3.936-1.307-.661-2.108-1.107-2.108-1.784.015-.615.677-1.245,2.153-1.245a6.35,6.35,0,0,1,2.784.553l.338.153Z" transform="translate(-46.78 -12.845)" fill="#00579f"/>
      <path id="path13" d="M102.446,22.873c.308-.83,1.492-4.044,1.492-4.044-.016.031.307-.846.492-1.384l.261,1.245s.708,3.46.861,4.182Zm4.613-9.333h-2.891a1.844,1.844,0,0,0-1.953,1.2L96.664,27.993h3.921l.784-2.168h4.8c.107.507.446,2.168.446,2.168h3.46Z" transform="translate(-63.939 -13.278)" fill="#00579f"/>
      <path id="path15" d="M29.505,13.54,25.845,23.4l-.4-2a11.063,11.063,0,0,0-5.167-6.058l3.352,12.64h3.952L33.457,13.54Z" transform="translate(-16.372 -13.278)" fill="#00579f"/>
      <path id="path17" d="M16,13.54H9.986l-.062.292c4.69,1.2,7.8,4.091,9.073,7.566l-1.307-6.643A1.546,1.546,0,0,0,16,13.54Z" transform="translate(-9.925 -13.278)" fill="#faa61a"/>
    </g>
  </g>
</svg>
