<svg id="Group_11" data-name="Group 11" xmlns="http://www.w3.org/2000/svg" width="64.823" height="41.499" viewBox="0 0 64.823 41.499">
  <rect id="Rectangle-path-2" width="64.823" height="41.499" rx="10.309" fill="#eb6e93"/>
  <g id="g2431" transform="translate(8.655 10.312)">
    <path id="path2376" d="M25.3,79.193H23.667l-1.307-2.5c-1,.36-1.225.7-1.225,1.564v.936H19.653v-7.2H22.4c1.616,0,2.562.823,2.562,2.233a2.033,2.033,0,0,1-1.245,1.966Zm-4.168-3.386a3.885,3.885,0,0,1,1.07-.494l.309-.1c.679-.226.978-.525.978-1.008,0-.556-.391-.854-1.122-.854H21.135Zm9.382.854a2.244,2.244,0,0,1-.021.35,14.306,14.306,0,0,0-3.5.412,1.294,1.294,0,0,0,1.183.648,1.9,1.9,0,0,0,1.327-.556l.731.957a2.792,2.792,0,0,1-2.058.854,2.6,2.6,0,0,1-2.7-2.634,2.558,2.558,0,0,1,2.6-2.614,2.394,2.394,0,0,1,2.429,2.583Zm-2.47-1.327a1.186,1.186,0,0,0-1.194,1.081,9.739,9.739,0,0,1,2.243-.35A1.027,1.027,0,0,0,28.047,75.334Zm5.533,3.993a2.475,2.475,0,0,0,2.326-1.317l-1.225-.628a1.246,1.246,0,0,1-1.1.607,1.286,1.286,0,1,1,0-2.573,1.246,1.246,0,0,1,1.1.607l1.225-.628a2.475,2.475,0,0,0-2.326-1.317,2.625,2.625,0,1,0,0,5.248ZM39.463,74.1a1.944,1.944,0,0,0-1.472.587v-2.7h-1.4v7.2h1.4V76.579a1.134,1.134,0,1,1,2.264,0v2.614h1.4V76.321A2.1,2.1,0,0,0,39.463,74.1Zm6.161,0a1.941,1.941,0,0,0-1.533.648v-.535H42.732v4.981h1.4V76.579a1.134,1.134,0,1,1,2.264,0v2.614h1.4V76.322A2.087,2.087,0,0,0,45.624,74.1Zm6.675.113v2.665a1.083,1.083,0,1,1-2.161,0V74.212h-1.4v2.923a2.058,2.058,0,0,0,2.151,2.171A1.831,1.831,0,0,0,52.34,78.7v.494H53.7V74.212Zm5.451-.113a1.941,1.941,0,0,0-1.533.648v-.535H54.858v4.981h1.4V76.579a1.134,1.134,0,1,1,2.264,0v2.614h1.4V76.322A2.087,2.087,0,0,0,57.749,74.1Zm8.538-.36a2.876,2.876,0,0,1-.731,1.976,4.2,4.2,0,0,1,.268,1.574c0,1.708-.741,3.787-3.262,3.787a3.833,3.833,0,0,1-.926-.1v-1.3a3.516,3.516,0,0,0,.875.1,1.64,1.64,0,0,0,1.811-1.163,1.819,1.819,0,0,1-1.245.412A2.4,2.4,0,0,1,60.6,76.61a2.618,2.618,0,0,1,4.116-2.027,1.592,1.592,0,0,0,.206-.844Zm-3.118,4.044a1.194,1.194,0,1,0-1.2-1.194A1.171,1.171,0,0,0,63.169,77.783ZM67.8,79.275a.936.936,0,1,0-.936-.936A.94.94,0,0,0,67.8,79.275Z" transform="translate(-19.653 -51.888)" fill="#fff" fill-rule="evenodd"/>
    <path id="path2378" d="M38.539,21.937a73.317,73.317,0,0,1,7.411-.406c1.737,0,3,.057,4.718.184l.8.06c.3.023.544.039.776.054.755.048,1.4.073,2.074.073a.434.434,0,1,0,0-.868c-.657,0-1.279-.023-2.016-.071q-.383-.024-.766-.053l-.8-.06c-1.739-.129-3.023-.187-4.786-.187a74.177,74.177,0,0,0-7.9.455.437.437,0,0,0-.392.431V22.91a.427.427,0,0,0,.051.2,5.715,5.715,0,0,1,.657,2.081,11.9,11.9,0,0,0,1.06,5.069,5.8,5.8,0,0,0,5.658,3.2c4.875,0,6.318-1.081,7.364-4.312l.162-.5c.063-.194.116-.354.17-.508-.06.172.731-2.174.906-2.589.257-.609.445-.817.631-.817a.434.434,0,1,0,0-.868c-.66,0-1.068.45-1.448,1.354-.189.448-1,2.845-.926,2.638-.056.161-.111.327-.176.527l-.163.5a4.605,4.605,0,0,1-1.538,2.64c-.94.706-2.489,1.068-4.983,1.067a4.924,4.924,0,0,1-4.865-2.719,11.27,11.27,0,0,1-.971-4.756,6.592,6.592,0,0,0-.706-2.32Z" transform="translate(-30.605 -20.663)" fill="#fff"/>
    <path id="path2380" d="M50,31.1h-.045A3.894,3.894,0,0,1,47.1,30a6.4,6.4,0,0,1-1.515-4.2q-.056-.591-.054-1.185a1.371,1.371,0,0,1,.314-1.034,1.421,1.421,0,0,1,.973-.5c1.072-.118,2.715-.176,3.795-.188,2.774-.032,4.285.134,4.9.534.83.529.722,1.32,0,3.576l-.2.489C54.6,29.818,54.2,31.1,50,31.1Zm1.569-7.42-4.2,5.153a.428.428,0,0,0,.069.61.448.448,0,0,0,.621-.068l4.2-5.152a.428.428,0,0,0-.069-.61.448.448,0,0,0-.621.068Zm-2.786-.175-2.412,2.957a.428.428,0,0,0,.068.61.449.449,0,0,0,.622-.068l2.412-2.957a.428.428,0,0,0-.069-.61.448.448,0,0,0-.621.068Zm26.095-1.569V22.8a6.569,6.569,0,0,0-.7,2.294,11.334,11.334,0,0,1-.974,4.781A4.923,4.923,0,0,1,68.338,32.6c-2.492,0-4.04-.365-4.981-1.074a4.632,4.632,0,0,1-1.542-2.647l-.161-.5c-.064-.2-.12-.361-.176-.521.073.208-.736-2.189-.925-2.638-.381-.9-.789-1.353-1.449-1.353a.434.434,0,1,0,0,.868c.187,0,.375.208.632.817.174.415.966,2.761.906,2.589.053.152.106.311.169.5.033.1.145.446.161.5,1.052,3.238,2.5,4.326,7.367,4.326a5.8,5.8,0,0,0,5.657-3.2,11.96,11.96,0,0,0,1.062-5.095,5.7,5.7,0,0,1,.655-2.055.427.427,0,0,0,.051-.2v-1.36a.437.437,0,0,0-.392-.431,73.985,73.985,0,0,0-7.9-.455c-1.765,0-3.049.058-4.788.187l-.8.06c-.3.023-.538.039-.767.054-.736.047-1.358.071-2.016.071a.434.434,0,1,0,0,.868c.679,0,1.318-.024,2.074-.073.232-.015.471-.032.776-.054l.8-.06c1.719-.127,2.981-.184,4.72-.184a73.3,73.3,0,0,1,7.409.406Z" transform="translate(-35.393 -20.663)" fill="#fff"/>
    <path id="path2382" d="M93.951,34.54c-4.193,0-4.6-1.283-5.336-3.6l-.162-.509c-.735-2.257-.83-3.043,0-3.576.615-.408,2.126-.567,4.9-.534,1.084,0,2.724.069,3.795.187a1.432,1.432,0,0,1,.978.51,1.379,1.379,0,0,1,.31,1.042,8.638,8.638,0,0,1-.058,1.222,6.406,6.406,0,0,1-1.516,4.163A3.894,3.894,0,0,1,94,34.545h-.054Zm-2.438-7.595L89.1,29.9a.428.428,0,0,0,.069.61.448.448,0,0,0,.621-.068L92.2,27.487a.428.428,0,0,0-.068-.61.448.448,0,0,0-.622.068Zm2.786.175-4.2,5.153a.428.428,0,0,0,.069.61.449.449,0,0,0,.622-.068l4.2-5.152a.428.428,0,0,0-.069-.61.448.448,0,0,0-.621.068Z" transform="translate(-61.152 -24.102)" fill="#fff"/>
  </g>
</svg>
