<svg xmlns="http://www.w3.org/2000/svg" width="62.056" height="38.732" viewBox="0 0 62.056 38.732">
  <g id="Group_10" data-name="Group 10" transform="translate(-1.384 -1.384)">
    <path id="XMLID_3_-6" d="M232.98-135.625h.655c.177,0,.355,0,.533.008a6.915,6.915,0,0,1,1.011.086,2.731,2.731,0,0,1,.777.254,2.5,2.5,0,0,1,.635.461,2.52,2.52,0,0,1,.464.638,2.694,2.694,0,0,1,.252.776,6.875,6.875,0,0,1,.086,1.01c0,.176.007.352.008.533,0,.218,0,.436,0,.655v29.888c0,.219,0,.436,0,.659,0,.176,0,.352-.008.529a6.869,6.869,0,0,1-.086,1.014,2.685,2.685,0,0,1-.252.773,2.5,2.5,0,0,1-.462.636,2.491,2.491,0,0,1-.638.463,2.709,2.709,0,0,1-.772.253,7.035,7.035,0,0,1-1.008.086c-.179,0-.357.006-.54.007-.218,0-.436,0-.654,0H179.758c-.215,0-.431,0-.65,0-.179,0-.357,0-.529-.007a7.047,7.047,0,0,1-1.012-.086,2.717,2.717,0,0,1-.778-.255,2.482,2.482,0,0,1-.635-.462,2.49,2.49,0,0,1-.461-.636,2.716,2.716,0,0,1-.253-.777,6.843,6.843,0,0,1-.086-1.01c0-.177-.007-.354-.008-.531v-31.2c0-.177,0-.354.008-.531a6.849,6.849,0,0,1,.087-1.013,2.711,2.711,0,0,1,.253-.776,2.5,2.5,0,0,1,.462-.635,2.5,2.5,0,0,1,.636-.462,2.725,2.725,0,0,1,.776-.253,6.9,6.9,0,0,1,1.012-.086c.177,0,.354-.007.53-.008H232.98" transform="translate(-173.961 137.009)" fill="#fff"/>
    <g id="Others" transform="translate(4.367 13.99)">
      <g id="paypal" transform="translate(0 0)">
        <g id="Shape">
          <path id="path994" d="M46.114,7.72h-3.1a.43.43,0,0,0-.426.359l-1.255,7.857a.256.256,0,0,0,.256.295h1.482a.43.43,0,0,0,.426-.36l.339-2.119a.429.429,0,0,1,.426-.36h.983a3.176,3.176,0,0,0,3.533-2.912,2.336,2.336,0,0,0-.4-1.978,2.9,2.9,0,0,0-2.262-.782Zm.358,2.869c-.17,1.1-1.021,1.1-1.844,1.1H44.16l.329-2.053a.258.258,0,0,1,.256-.215h.215c.561,0,1.089,0,1.362.315a1.011,1.011,0,0,1,.151.854Z" transform="translate(-25.141 -4.697)" fill="#253b80" fill-rule="evenodd"/>
          <path id="path996" d="M66.322,14.743H64.836a.258.258,0,0,0-.256.215l-.066.41-.1-.149a2.131,2.131,0,0,0-1.755-.615,3.4,3.4,0,0,0-3.319,2.951,2.743,2.743,0,0,0,.554,2.254,2.341,2.341,0,0,0,1.872.746,2.859,2.859,0,0,0,2.057-.84l-.066.408a.256.256,0,0,0,.255.3h1.339a.43.43,0,0,0,.426-.36l.8-5.022A.255.255,0,0,0,66.322,14.743ZM64.251,17.6A1.65,1.65,0,0,1,62.574,19a1.262,1.262,0,0,1-1-.4,1.235,1.235,0,0,1-.233-1.031,1.657,1.657,0,0,1,1.666-1.412A1.168,1.168,0,0,1,64.251,17.6Z" transform="translate(-36.072 -8.885)" fill="#253b80" fill-rule="evenodd"/>
          <path id="path998" d="M86.7,14.957H85.2a.434.434,0,0,0-.357.187l-2.06,3-.873-2.878a.432.432,0,0,0-.414-.3H80.033a.256.256,0,0,0-.246.338l1.645,4.766-1.547,2.155a.255.255,0,0,0,.211.4h1.492a.432.432,0,0,0,.354-.183l4.968-7.078a.255.255,0,0,0-.212-.4Z" transform="translate(-48.532 -9.099)" fill="#253b80" fill-rule="evenodd"/>
          <path id="path1000" d="M102.644,7.72h-3.1a.429.429,0,0,0-.426.359l-1.255,7.857a.256.256,0,0,0,.255.295h1.593a.3.3,0,0,0,.3-.252l.356-2.227a.429.429,0,0,1,.426-.36h.982a3.176,3.176,0,0,0,3.533-2.912,2.334,2.334,0,0,0-.4-1.978A2.9,2.9,0,0,0,102.644,7.72ZM103,10.59c-.169,1.1-1.02,1.1-1.844,1.1h-.468l.329-2.053a.257.257,0,0,1,.255-.215h.215c.56,0,1.089,0,1.362.315a1.011,1.011,0,0,1,.15.854Z" transform="translate(-59.532 -4.697)" fill="#179bd7" fill-rule="evenodd"/>
          <path id="path1002" d="M122.855,14.743H121.37a.256.256,0,0,0-.255.215l-.066.41-.1-.149a2.13,2.13,0,0,0-1.755-.615,3.4,3.4,0,0,0-3.318,2.951,2.744,2.744,0,0,0,.553,2.254,2.342,2.342,0,0,0,1.872.746,2.859,2.859,0,0,0,2.057-.84l-.066.408a.256.256,0,0,0,.256.3h1.338a.429.429,0,0,0,.426-.36l.8-5.022A.257.257,0,0,0,122.855,14.743ZM120.783,17.6a1.65,1.65,0,0,1-1.677,1.4,1.263,1.263,0,0,1-1-.4,1.238,1.238,0,0,1-.233-1.031,1.658,1.658,0,0,1,1.666-1.412,1.168,1.168,0,0,1,1.243,1.438Z" transform="translate(-70.466 -8.885)" fill="#179bd7" fill-rule="evenodd"/>
          <path id="path1004" d="M136.263,7.935l-1.274,8a.256.256,0,0,0,.255.295h1.281a.429.429,0,0,0,.426-.36l1.256-7.856a.256.256,0,0,0-.255-.3h-1.434a.258.258,0,0,0-.255.216Z" transform="translate(-82.121 -4.696)" fill="#179bd7" fill-rule="evenodd"/>
          <path id="path1006" d="M4.046,13.774l.237-1.488-.529-.012H1.23L2.984,1.291a.144.144,0,0,1,.143-.12H7.384a3.821,3.821,0,0,1,2.9.863,1.96,1.96,0,0,1,.464.859,3.061,3.061,0,0,1,0,1.185l-.005.034v.3l.239.134a1.572,1.572,0,0,1,.875,1.232,3.626,3.626,0,0,1-.056,1.26,4.4,4.4,0,0,1-.523,1.426,2.947,2.947,0,0,1-.828.9,3.381,3.381,0,0,1-1.116.5,5.632,5.632,0,0,1-1.394.159H7.61a1.012,1.012,0,0,0-.648.235.987.987,0,0,0-.338.595l-.025.134L6.18,13.606l-.019.1a.082.082,0,0,1-.026.056.071.071,0,0,1-.044.016H4.046Z" transform="translate(-0.748 -0.713)" fill="#253b80" fill-rule="evenodd"/>
          <path id="path1008" d="M14.823,8.771h0q-.019.12-.044.246c-.561,2.845-2.482,3.828-4.935,3.828H8.6a.6.6,0,0,0-.6.507H8l-.639,4-.181,1.135a.317.317,0,0,0,.315.365H9.706a.531.531,0,0,0,.526-.444l.022-.111.417-2.613.027-.143a.531.531,0,0,1,.526-.444h.331c2.146,0,3.826-.86,4.317-3.349a2.822,2.822,0,0,0-.444-2.519A2.115,2.115,0,0,0,14.823,8.771Z" transform="translate(-4.363 -5.336)" fill="#179bd7" fill-rule="evenodd"/>
          <path id="path1010" d="M15.517,7.871q-.129-.037-.265-.067t-.281-.052a7.026,7.026,0,0,0-1.1-.079H10.533a.536.536,0,0,0-.23.052.526.526,0,0,0-.3.393L9.3,12.555l-.02.129a.6.6,0,0,1,.6-.507h1.249c2.453,0,4.374-.983,4.935-3.828.017-.084.031-.166.044-.246a3.013,3.013,0,0,0-.462-.192Z" transform="translate(-5.644 -4.668)" fill="#222d65" fill-rule="evenodd"/>
          <path id="path1012" d="M4.363,3.449a.524.524,0,0,1,.3-.392.537.537,0,0,1,.23-.052H8.226a7.025,7.025,0,0,1,1.1.079q.144.023.281.052t.265.067L10,3.243a3.059,3.059,0,0,1,.462.192,2.662,2.662,0,0,0-.577-2.416A4.264,4.264,0,0,0,6.636,0H2.379a.606.606,0,0,0-.6.508L0,11.6a.363.363,0,0,0,.361.418H2.994l.66-4.133Z" transform="translate(0)" fill="#253b80" fill-rule="evenodd"/>
        </g>
      </g>
    </g>
  </g>
</svg>
