<svg xmlns="http://www.w3.org/2000/svg" width="64.823" height="41.499" viewBox="0 0 64.823 41.499">
  <g id="Group_12" data-name="Group 12" transform="translate(0 0)">
    <rect id="Rectangle-path" width="64.823" height="41.499" rx="10.309" transform="translate(0 0)" fill="#eb6e93"/>
    <g id="g2167" transform="translate(17.648 3.819)">
      <path id="Shape-5" d="M47.412,82.746a2.328,2.328,0,0,0,2.485-2.33c0-1.284-.911-1.843-2.029-2.174-.714-.207-1.16-.362-1.16-.87a.746.746,0,0,1,.8-.756,1.088,1.088,0,0,1,.942.6l1.17-.735a2.326,2.326,0,0,0-4.369.963c0,.932.559,1.657,1.946,2.06.756.217,1.232.362,1.232.963a.9.9,0,0,1-.994.911,1.82,1.82,0,0,1-1.4-.777l-.973.984a2.888,2.888,0,0,0,2.35,1.16Zm5.691,0a2.641,2.641,0,1,1,2.7-2.64A2.678,2.678,0,0,1,53.1,82.746Zm0-1.325a1.315,1.315,0,1,0-1.294-1.315A1.286,1.286,0,0,0,53.1,81.42Zm6.188-4.732V75.363h-.207a2.36,2.36,0,0,0-2.557,2.485v4.763h1.408V80.519a1.233,1.233,0,0,1,1.315-1.211V77.962a1.725,1.725,0,0,0-1.315.5v-.538a1.16,1.16,0,0,1,1.356-1.232Zm3.072,6.057a2.641,2.641,0,1,1,2.7-2.64A2.678,2.678,0,0,1,62.363,82.746Zm0-1.325a1.315,1.315,0,1,0-1.294-1.315A1.286,1.286,0,0,0,62.363,81.42Zm4.832-3.251V77.6H65.828v5.011h1.408V80.323a1.2,1.2,0,0,1,1.336-1.294V77.517a1.427,1.427,0,0,0-1.377.652Zm3.589,1.884V78.832a1.725,1.725,0,0,0,1.315.5V77.983a1.246,1.246,0,0,1-1.315-1.211v-.787H69.375v4.141a2.36,2.36,0,0,0,2.557,2.485h.207V81.286a1.16,1.16,0,0,1-1.356-1.232Zm3.04,2.64a.942.942,0,1,0-.942-.942A.946.946,0,0,0,73.824,82.694Z" transform="translate(-45.062 -48.883)" fill="#fff"/>
      <g id="g1164" transform="translate(6.904 0)">
        <path id="path1158" d="M7.033,17.6a1.121,1.121,0,0,1,.021,1.578l-.086.09a1.122,1.122,0,0,1-1.578.02L2.906,16.83c-.684-.687-.782-1.533-.347-1.98l.087-.091A1.013,1.013,0,0,1,4,14.672a.447.447,0,1,0,.553-.7A1.909,1.909,0,0,0,2,14.14l-.087.091a2.3,2.3,0,0,0,.359,3.232l2.491,2.468a2.019,2.019,0,0,0,2.847-.039L7.7,19.8a2.014,2.014,0,0,0-.04-2.833.447.447,0,0,0-.627.637ZM5.546,4.259l1.017,8.362a.447.447,0,0,0,.888-.108L6.431,4.126l-.01-.054a1.335,1.335,0,0,1,.835-1.6,1.232,1.232,0,0,1,1.466.966L10.492,11a.447.447,0,0,0,.871-.2L9.6,3.251A2.126,2.126,0,0,0,7.069,1.6,2.216,2.216,0,0,0,5.546,4.259Z" transform="translate(-1.402 -1.513)" fill="#fff"/>
        <path id="path1160" d="M17.288,14.024,19.3,4a2.123,2.123,0,0,0-1.474-2.479,2.218,2.218,0,0,0-2.7,1.572L12.9,10.72a.447.447,0,0,0,.858.25l2.229-7.638a1.323,1.323,0,0,1,1.6-.95,1.227,1.227,0,0,1,.835,1.435L16.411,13.849a.447.447,0,0,0,.877.176Zm-5.064,9.657a5.66,5.66,0,0,1-5.849-5.66.447.447,0,0,0-.894,0,6.55,6.55,0,0,0,6.743,6.553.447.447,0,1,0,0-.893Zm-1.577-7.814a1.105,1.105,0,0,1-.439.615l-.1.064a1.124,1.124,0,0,1-1.557-.3L6.6,13.339c-.533-.809-.464-1.66.05-2.012l.1-.064c.658-.381,1.218-.092,1.793.745l1.634,2.433a.447.447,0,0,0,.742-.5L9.279,11.506c-.808-1.177-1.81-1.7-3.005-1l-.124.082a2.311,2.311,0,0,0-.293,3.247l1.958,2.914a2.018,2.018,0,0,0,2.795.541l.1-.066a2,2,0,0,0,.8-1.116.447.447,0,0,0-.861-.239Z" transform="translate(-3.798 -1.452)" fill="#fff"/>
        <path id="path1162" d="M20.871,34.5a3.328,3.328,0,0,0-1.578,2.972.447.447,0,0,0,.893.043,2.344,2.344,0,0,1,1.426-2.376,3.037,3.037,0,0,1,1.371-.157c.058.006.1.012.112.015a.447.447,0,0,0,.179-.875l-3.438-.768c-1.609-.44-1.852-1.035-1.554-2.028a.983.983,0,0,1,.791-.743,2.2,2.2,0,0,1,.84,0c.081.014.138.028.164.035L25.3,31.838a.4.4,0,0,1,.1.033.839.839,0,0,1,.264.2,2.9,2.9,0,0,1,.445,2.235c-.34,4.057-2.232,6.576-6.716,6.536a.447.447,0,1,0-.008.893c5.039.044,7.239-2.886,7.614-7.355a3.7,3.7,0,0,0-.683-2.921,1.509,1.509,0,0,0-.852-.495L20.3,29.756c-.032-.01-.12-.031-.234-.051a3.059,3.059,0,0,0-1.188.01,1.868,1.868,0,0,0-1.454,1.359c-.43,1.433.029,2.558,2.2,3.15Z" transform="translate(-11.062 -18.608)" fill="#fff"/>
      </g>
    </g>
  </g>
</svg>
